<?xml version="1.0" encoding="UTF-8" standalone="no"?>
<!-- Created with Inkscape (http://www.inkscape.org/) -->

<svg
   xmlns:dc="http://purl.org/dc/elements/1.1/"
   xmlns:cc="http://creativecommons.org/ns#"
   xmlns:rdf="http://www.w3.org/1999/02/22-rdf-syntax-ns#"
   xmlns:svg="http://www.w3.org/2000/svg"
   xmlns="http://www.w3.org/2000/svg"
   xmlns:sodipodi="http://sodipodi.sourceforge.net/DTD/sodipodi-0.dtd"
   xmlns:inkscape="http://www.inkscape.org/namespaces/inkscape"
   width="145.657mm"
   height="36.701752mm"
   viewBox="0 0 145.657 36.701752"
   version="1.1"
   id="svg4469"
   sodipodi:docname="kingtable-un.svg"
   inkscape:version="0.92+devel unknown">
  <title
     id="title5124">KingTable logo</title>
  <defs
     id="defs4463" />
  <sodipodi:namedview
     id="base"
     pagecolor="#ffffff"
     bordercolor="#666666"
     borderopacity="1.0"
     inkscape:pageopacity="0.0"
     inkscape:pageshadow="2"
     inkscape:zoom="2.6956331"
     inkscape:cx="244.59478"
     inkscape:cy="83.468934"
     inkscape:document-units="mm"
     inkscape:current-layer="layer1"
     showgrid="false"
     inkscape:window-width="2503"
     inkscape:window-height="1056"
     inkscape:window-x="57"
     inkscape:window-y="24"
     inkscape:window-maximized="1"
     fit-margin-top="5"
     fit-margin-left="5"
     fit-margin-right="5"
     fit-margin-bottom="5" />
  <metadata
     id="metadata4466">
    <rdf:RDF>
      <cc:Work
         rdf:about="">
        <dc:format>image/svg+xml</dc:format>
        <dc:type
           rdf:resource="http://purl.org/dc/dcmitype/StillImage" />
        <dc:title>KingTable logo</dc:title>
        <dc:date>2017-02-04</dc:date>
        <dc:creator>
          <cc:Agent>
            <dc:title>Roberto Prevato</dc:title>
          </cc:Agent>
        </dc:creator>
        <dc:rights>
          <cc:Agent>
            <dc:title>Roberto Prevato</dc:title>
          </cc:Agent>
        </dc:rights>
      </cc:Work>
    </rdf:RDF>
  </metadata>
  <g
     inkscape:label="Layer 1"
     inkscape:groupmode="layer"
     id="layer1"
     transform="translate(-0.37418775,-0.23066445)">
    <path
       style="fill:#000000;fill-opacity:1;fill-rule:nonzero;stroke:none;stroke-width:0.93009251"
       d="m 81.529297,19.773438 c -8.508828,-0.0994 -15.58852,1.664248 -21.757813,4.267578 -8.002514,3.376236 -9.853515,9.853502 -9.853515,12.765625 0,2.910257 0.537263,5.025128 1.791015,7.091797 1.640686,2.697267 4.424379,4.633145 7.542969,5.675781 3.205119,1.071466 7.38816,0.222668 8.394531,-2.123047 0.742198,-1.72625 -1.25,-5.103516 -1.25,-5.103516 -1.086361,-1.97458 -1.099609,-4.345703 -1.099609,-4.345703 0,-5.642867 10.900391,-6.869141 10.900391,-6.869141 20.008161,-2.239664 0.0015,13.139382 -15.228516,32.699219 -1.500317,1.957607 -2.742707,3.786014 -3.798828,5.517578 -23.108853,3.27103 -34.265076,13.792971 -36.498047,23.34375 -3.50739,17.992641 18.963571,27.996091 52.185547,27.996091 24.523748,0 37.328128,-10.42773 37.328128,-10.42773 9.66925,-7.31332 8.84611,-14.75688 7.83789,-17.494142 -1.18123,-3.214397 -5.02025,-6.159065 -2.63086,-2.892578 1.62302,2.157815 1.6582,5.158203 1.6582,5.158203 0,10.554687 -19.784931,19.111327 -44.193358,19.111327 -24.409349,0 -44.197266,-8.55664 -44.197266,-19.111327 0,-7.516762 10.037002,-14.014927 24.626953,-17.136719 -3.595982,13.321886 8.803011,17.13317 13.292969,17.833985 0,0 9.41923,1.740906 18.00586,-1.548828 4.112862,-1.58767 8.108673,-3.678531 9.912109,-7.310547 2.277815,-4.481186 0.462891,-8.548828 0.462891,-8.548828 -3.303701,-8.050885 -11.91331,-10.007813 -22.160157,-10.007813 -1.918911,-0.0021 -3.77163,0.04443 -5.574219,0.123047 5.090336,-8.541097 13.553014,-18.047924 19.644532,-26.105469 9.258168,-12.243736 8.664062,-15.00534 8.664062,-16.5 0,-1.49187 -1.209953,-4.742726 -5.001953,-5.300781 -3.173718,-0.485031 -6.167631,-0.724682 -9.003906,-0.757812 z m 118.876953,14.24414 c -0.69447,0 -1.33463,0.08333 -1.91797,0.25 -0.58333,0.166667 -1.09655,0.458333 -1.54101,0.875 -0.4444,0.416667 -0.79102,0.958334 -1.04102,1.625 -0.25,0.666667 -0.375,1.499999 -0.375,2.5 0,1 0.125,1.833334 0.375,2.5 0.25,0.666666 0.59662,1.208332 1.04102,1.625 0.44446,0.416663 0.95768,0.723525 1.54101,0.917969 0.58334,0.166677 1.2235,0.25 1.91797,0.25 0.66667,0 1.29167,-0.08332 1.875,-0.25 0.58333,-0.194439 1.08333,-0.501301 1.5,-0.917969 0.4444,-0.416668 0.79101,-0.958334 1.04102,-1.625 0.2778,-0.666666 0.41601,-1.5 0.41601,-2.5 0,-1.000001 -0.13821,-1.833333 -0.41601,-2.5 -0.25001,-0.666666 -0.59662,-1.208333 -1.04102,-1.625 -0.41667,-0.416666 -0.91667,-0.708333 -1.5,-0.875 -0.58333,-0.166667 -1.20833,-0.25 -1.875,-0.25 z m 213.95703,0 v 3.583984 h 0.66602 c 0.94445,0 1.83463,0.0701 2.66797,0.208985 0.8611,0.111113 1.6111,0.374348 2.25,0.791015 0.63889,0.416668 1.1389,1.013237 1.5,1.791016 0.38888,0.749999 0.58203,1.749999 0.58203,3 v 45.75 c 0,1.333334 -0.19315,2.403431 -0.58203,3.208984 -0.3611,0.805554 -0.86111,1.430553 -1.5,1.875 -0.61113,0.416668 -1.34789,0.6951 -2.20899,0.833985 -0.83333,0.138885 -1.73676,0.207031 -2.70898,0.207031 h -0.66602 v 3.583984 h 13.66602 l 1.5,-6.666015 h 0.54297 c 0.61109,1.111113 1.31945,2.124349 2.125,3.041015 0.83333,0.916667 1.77841,1.708335 2.83398,2.375 1.08331,0.666669 2.28971,1.179902 3.62305,1.541016 1.33334,0.361106 2.8201,0.542969 4.45898,0.542969 2.80557,0 5.29233,-0.458334 7.45899,-1.375 2.16667,-0.944441 3.98675,-2.389539 5.45898,-4.333985 1.47223,-1.944445 2.58205,-4.416015 3.33203,-7.416015 0.77778,-3 1.16602,-6.556861 1.16602,-10.667969 h 0.002 c 0,-4.083333 -0.39019,-7.609806 -1.16797,-10.582031 -0.75001,-2.972221 -1.8598,-5.417318 -3.33203,-7.333985 -1.47223,-1.944445 -3.29233,-3.374349 -5.45898,-4.291015 -2.16668,-0.944441 -4.65345,-1.417969 -7.45899,-1.417969 -1.66667,0 -3.16666,0.208332 -4.5,0.625 -1.33334,0.388886 -2.52648,0.958985 -3.58203,1.708984 -1.05555,0.72222 -1.9874,1.610455 -2.79297,2.666016 -0.80554,1.055552 -1.52712,2.237414 -2.16601,3.542969 h -0.33399 c 0.0557,-1.416668 0.11058,-2.791668 0.16602,-4.125 0.0557,-1.166667 0.0992,-2.374999 0.12695,-3.625 0.0277,-1.277773 0.041,-2.402772 0.041,-3.375 V 34.017578 Z m 51.91797,0 v 3.583984 h 1.08203 c 0.94445,0 1.83463,0.0701 2.66797,0.208985 0.8611,0.111113 1.61111,0.374348 2.25,0.791015 0.63889,0.416668 1.13695,1.013237 1.49805,1.791016 0.38891,0.749999 0.58398,1.749999 0.58398,3 v 45.75 c 0,1.333334 -0.19507,2.403431 -0.58398,3.208984 -0.3611,0.805554 -0.85916,1.430553 -1.49805,1.875 -0.6111,0.416668 -1.34786,0.6951 -2.20898,0.833985 -0.83334,0.138885 -1.73677,0.207031 -2.70899,0.207031 h -1.08203 v 3.583984 h 24.20703 v -3.583984 h -1.08203 c -0.97222,0 -1.89083,-0.06815 -2.75195,-0.207031 -0.83334,-0.138888 -1.56817,-0.417319 -2.20703,-0.833985 -0.6389,-0.444447 -1.13888,-1.069446 -1.5,-1.875 -0.36113,-0.805553 -0.54297,-1.87565 -0.54297,-3.208984 v -55.125 z m -336.20898,3.917969 v 3.582031 h 1.08398 c 0.9444,0 1.83268,0.0701 2.66602,0.208984 0.86113,0.111114 1.61113,0.374348 2.25,0.791016 0.63893,0.416665 1.13893,1.015195 1.5,1.792969 0.38893,0.749999 0.58398,1.749999 0.58398,3 v 42.25 c 0,1.249998 -0.19505,2.263234 -0.58398,3.041015 -0.36107,0.75 -0.86107,1.320099 -1.5,1.708985 -0.63887,0.388896 -1.38887,0.65213 -2.25,0.791015 -0.83334,0.111119 -1.72162,0.166016 -2.66602,0.166016 h -1.08398 v 3.583984 h 24.83398 v -3.583984 h -1.125 c -0.94447,0 -1.84785,-0.06815 -2.70898,-0.207031 -0.86107,-0.138888 -1.61107,-0.417319 -2.25,-0.833985 -0.61107,-0.444447 -1.11107,-1.069446 -1.5,-1.875 -0.36107,-0.805553 -0.54102,-1.87565 -0.54102,-3.208984 V 75.976562 l 7.25,-5.875 14.70703,21.083985 c 1.05554,1.527778 2.04232,2.791015 2.95899,3.791015 0.94446,0.972221 2.04101,1.750653 3.29101,2.333985 1.25,0.583325 2.79167,0.984795 4.625,1.207031 1.83333,0.222211 4.18184,0.333984 7.04297,0.333984 h 0.91602 v -3.583984 h -0.16602 c -1.58333,0 -3.14017,-0.568139 -4.66797,-1.707031 -1.5,-1.166667 -3.06816,-2.874999 -4.70703,-5.125 l -18,-25.083985 12.375,-13.916015 c 1.11107,-1.249998 2.13756,-2.361764 3.08203,-3.333985 0.9722,-1 1.90404,-1.833334 2.79297,-2.5 0.91667,-0.694447 1.81816,-1.222878 2.70703,-1.583984 0.91667,-0.388893 1.86179,-0.582031 2.83399,-0.582031 v -3.5 h -18.875 v 3.5 c 1.41666,0 2.47155,0.138235 3.16601,0.416015 0.69447,0.250001 1.04297,0.736765 1.04297,1.458985 0,0.416665 -0.0833,0.874999 -0.25,1.375 -0.13893,0.499999 -0.38893,1.083334 -0.75,1.75 -0.33333,0.666668 -0.80683,1.416667 -1.41797,2.25 -0.61113,0.805561 -1.37435,1.735464 -2.29101,2.791015 l -17.66602,20.25 V 47.642578 c 0,-1.333334 0.17995,-2.401473 0.54102,-3.207031 0.38893,-0.805554 0.88893,-1.417317 1.5,-1.833985 0.63893,-0.444447 1.38893,-0.736114 2.25,-0.875 0.86113,-0.138885 1.76451,-0.208984 2.70898,-0.208984 h 1.125 v -3.582031 z m 187.04101,0 -0.41601,14.916015 h 4.41601 l 0.45899,-3.666015 c 0.11112,-0.944441 0.29101,-1.834636 0.54101,-2.667969 0.2778,-0.861112 0.68125,-1.611111 1.20899,-2.25 0.5556,-0.638891 1.25065,-1.138891 2.08398,-1.5 0.86107,-0.388893 1.91601,-0.582031 3.16602,-0.582031 h 8.16601 v 47.375 c 0,1.249998 -0.19316,2.263234 -0.58203,3.041015 -0.36113,0.75 -0.86113,1.320099 -1.5,1.708985 -0.63893,0.388896 -1.38894,0.65213 -2.25,0.791015 -0.83334,0.111119 -1.7235,0.166016 -2.66797,0.166016 h -1.95703 v 3.583984 h 26.54102 v -3.583984 h -1.95899 c -0.94446,0 -1.84596,-0.06815 -2.70703,-0.207031 -0.86113,-0.138888 -1.61113,-0.417319 -2.25,-0.833985 -0.61113,-0.444447 -1.11113,-1.069446 -1.5,-1.875 -0.36113,-0.805553 -0.54297,-1.87565 -0.54297,-3.208984 V 42.185547 h 8.29297 c 1.27773,0 2.3459,0.193138 3.20703,0.582031 0.86113,0.361109 1.55625,0.861109 2.08399,1.5 0.5278,0.638889 0.93118,1.388888 1.20898,2.25 0.27772,0.833333 0.47089,1.723528 0.58203,2.667969 l 0.41797,3.666015 h 4.41602 L 365.15625,37.935547 Z M 59.953125,40.664062 c 0,0 3.458541,2.145207 2.492187,4.152344 -0.05299,0.09116 -0.394519,-0.511127 -0.941406,-1.476562 -0.412951,-0.730126 -0.941597,-1.669418 -1.550781,-2.675782 z m 7.560547,8.048829 c 0,0 -0.838267,7.087059 -5.830078,7.011718 -3.1028,-0.04464 -4.277344,0.417969 -4.277344,0.417969 -2.813522,0.96172 -4.576149,2.68231 -4.966797,4.669922 0.567371,-0.705014 2.82814,-3.378248 4.900391,-3.677734 0.531091,-0.03553 0.179687,0.185546 0.179687,0.185546 -1.559769,1.084483 -4.076638,2.874283 -4.164062,4.638672 0.248353,-0.445515 2.237034,-2.487857 5.378906,-4.023437 1.071466,-0.522716 2.664062,-0.460938 2.664063,-0.460938 2.823779,0 6.765366,-1.280986 6.115234,-8.761718 z m 241.308598,1.763671 c -0.94441,0 -1.83269,0.15343 -2.66602,0.458985 -0.8056,0.30556 -1.5556,0.693796 -2.25,1.166015 -0.69447,0.444448 -1.31947,0.944448 -1.875,1.5 -0.5556,0.527781 -1.04232,1.014545 -1.45898,1.458985 -0.41667,-0.361106 -0.97162,-0.709635 -1.66602,-1.042969 -0.66667,-0.333329 -1.43183,-0.624997 -2.29297,-0.875 -0.83333,-0.277783 -1.75,-0.486115 -2.75,-0.625 -1,-0.166677 -2.01321,-0.25 -3.04101,-0.25 -2.6944,0 -5.04102,0.361765 -7.04102,1.083984 -2,0.722223 -3.66667,1.763889 -5,3.125 -1.33333,1.361114 -2.33333,3.014544 -3,4.958985 -0.66667,1.944446 -1,4.152781 -1,6.625 0,1.416668 0.16667,2.791666 0.5,4.125 0.36107,1.333332 0.86107,2.568136 1.5,3.707031 0.66667,1.111106 1.47161,2.111106 2.41602,3 0.97226,0.861105 2.06881,1.542968 3.29101,2.042969 -1.94446,1.166667 -3.36113,2.375002 -4.25,3.625 -0.88887,1.222229 -1.33203,2.680562 -1.33203,4.375 0,0.916669 0.13828,1.750001 0.41602,2.5 0.2778,0.749999 0.63951,1.416668 1.08398,2 0.4444,0.583335 0.9444,1.083335 1.5,1.5 0.55553,0.416665 1.1237,0.749997 1.70703,1 -1.41666,0.249998 -2.76321,0.651471 -4.04101,1.207031 -1.27774,0.555555 -2.41602,1.279084 -3.41602,2.167969 -0.97227,0.888893 -1.75065,1.957033 -2.33398,3.207033 -0.58334,1.25 -0.875,2.70833 -0.875,4.375 0,3.91666 1.47154,6.97353 4.41601,9.16797 2.94447,2.19444 7.38958,3.29101 13.33399,3.29101 3.86113,0 7.20768,-0.375 10.04101,-1.125 2.86113,-0.75 5.22292,-1.82009 7.08399,-3.20898 1.86113,-1.36111 3.23613,-3.02778 4.125,-5 0.91666,-1.97223 1.375,-4.18056 1.375,-6.625 0,-1.83333 -0.26329,-3.526473 -0.79102,-5.082033 -0.5,-1.583332 -1.32005,-2.931861 -2.45898,-4.042969 -1.11107,-1.138892 -2.55619,-2.027129 -4.33399,-2.666016 -1.7778,-0.638886 -3.94447,-0.958984 -6.5,-0.958984 h -9.66601 c -0.75,0 -1.45834,-0.0265 -2.125,-0.08203 -0.63887,-0.08334 -1.19382,-0.236773 -1.66602,-0.458985 -0.47227,-0.249998 -0.84727,-0.583332 -1.125,-1 -0.25,-0.416665 -0.375,-0.971567 -0.375,-1.666015 0,-0.638886 0.10982,-1.222219 0.33203,-1.75 0.2222,-0.527773 0.51387,-1.001304 0.875,-1.417969 0.38887,-0.416668 0.83399,-0.791666 1.33399,-1.125 0.5,-0.333332 1.02838,-0.638235 1.58398,-0.916016 0.2222,0.02779 0.51387,0.06947 0.875,0.125 0.36107,0.02774 0.74935,0.05619 1.16602,0.08398 0.41666,0 0.83333,0.01322 1.25,0.04102 h 1.125 c 2.58333,10e-7 4.83333,-0.361762 6.75,-1.083984 1.94446,-0.749999 3.54101,-1.776471 4.79101,-3.082031 1.2778,-1.305552 2.23613,-2.847219 2.875,-4.625 0.63887,-1.805554 0.95899,-3.763887 0.95899,-5.875 0,-2.44444 -0.32012,-4.47287 -0.95899,-6.083985 -0.61113,-1.638886 -1.4028,-3.055553 -2.375,-4.25 0.55554,-0.361101 1.12565,-0.624338 1.70899,-0.791015 0.58333,-0.166677 1.23671,-0.25 1.95898,-0.25 0.58333,0 1.05495,0.09657 1.41602,0.291015 0.36112,0.166668 0.63951,0.403433 0.83398,0.708985 0.22221,0.27778 0.37371,0.582681 0.45703,0.916015 0.0833,0.333332 0.125,0.666666 0.125,1 0.7778,1e-6 1.44447,-0.111773 2,-0.333984 0.58333,-0.249998 1.05684,-0.568138 1.41797,-0.957031 0.36106,-0.416668 0.62434,-0.890196 0.79102,-1.417969 0.19446,-0.55556 0.29101,-1.138893 0.29101,-1.75 0,-0.583335 -0.10982,-1.138237 -0.33203,-1.666016 -0.19447,-0.555555 -0.5013,-1.027122 -0.91797,-1.416015 -0.41667,-0.416675 -0.94316,-0.736773 -1.58203,-0.958985 -0.61113,-0.250003 -1.34785,-0.374999 -2.20898,-0.375001 z m -63.33399,1.791016 c -1.36113,0 -2.66601,0.111773 -3.91601,0.333984 -1.2222,0.194447 -2.38887,0.582684 -3.5,1.166016 -1.08334,0.555553 -2.125,1.347221 -3.125,2.375 -0.9722,1 -1.90215,2.291665 -2.79102,3.875 h -0.41797 l -1.125,-6.916016 h -13.79101 v 3.583985 h 0.25 c 0.94446,0 1.83268,0.06815 2.66601,0.207031 0.86113,0.138888 1.61114,0.417319 2.25,0.833984 0.63887,0.416668 1.13887,1.013237 1.5,1.791016 0.38887,0.749999 0.58399,1.749999 0.58399,3 v 26.625 c 0,1.333334 -0.19512,2.403431 -0.58399,3.208984 -0.36113,0.805554 -0.86113,1.430553 -1.5,1.875 -0.61113,0.416668 -1.34596,0.6951 -2.20703,0.833985 -0.83333,0.138885 -1.73672,0.207031 -2.70898,0.207031 h -0.70899 v 3.583984 h 22.95899 v -3.583984 h -0.25 c -0.94441,0 -1.84786,-0.0549 -2.70899,-0.166016 -0.83333,-0.138887 -1.56816,-0.402122 -2.20703,-0.791015 -0.63893,-0.388886 -1.1541,-0.958985 -1.54297,-1.708985 -0.36113,-0.777781 -0.54101,-1.791017 -0.54101,-3.041015 v -18 c 0,-1.833336 0.16666,-3.583334 0.5,-5.25 0.36113,-1.666666 0.94446,-3.140196 1.75,-4.417969 0.80559,-1.27778 1.86048,-2.291014 3.16601,-3.041016 1.33334,-0.749999 2.9735,-1.125 4.91797,-1.125 1.7222,0 3.18053,0.263235 4.375,0.791016 1.1944,0.499999 2.15273,1.25 2.875,2.25 0.75,1 1.29167,2.223529 1.625,3.667969 0.33333,1.444447 0.5,3.095916 0.5,4.957031 v 29.458984 h 14.875 v -3.583984 h -0.29297 c -0.94447,0 -1.81947,-0.06815 -2.625,-0.207031 -0.80553,-0.138888 -1.4987,-0.417319 -2.08203,-0.833985 -0.58333,-0.444447 -1.04167,-1.069446 -1.375,-1.875 -0.3056,-0.805553 -0.45898,-1.87565 -0.45898,-3.208984 V 68.976562 c 0,-2.916666 -0.33334,-5.4299 -1,-7.541015 -0.63887,-2.111106 -1.58399,-3.834635 -2.83399,-5.167969 -1.2222,-1.361114 -2.7222,-2.361114 -4.5,-3 -1.75,-0.666666 -3.75,-1 -6,-1 z m 142.54102,0 c -2.11112,0 -4.09594,0.153432 -5.95703,0.458984 -1.86112,0.305555 -3.50132,0.792319 -4.91797,1.458985 -1.38894,0.638894 -2.48549,1.472225 -3.29102,2.5 -0.80553,1.027779 -1.20898,2.277781 -1.20898,3.75 0,1.972228 0.61178,3.360462 1.83398,4.166015 1.25,0.805554 3.05491,1.208985 5.41602,1.208985 0,-1.333334 0.0985,-2.570097 0.29297,-3.708985 0.19444,-1.138885 0.56943,-2.125648 1.125,-2.958984 0.58333,-0.833333 1.37501,-1.471568 2.375,-1.916016 1.02778,-0.472219 2.36109,-0.708984 4,-0.708984 1.74999,0 3.13823,0.265196 4.16601,0.792969 1.05555,0.500001 1.8624,1.22157 2.41797,2.166015 0.55541,0.916667 0.91523,2.02843 1.08203,3.333985 0.16655,1.277778 0.25,2.67925 0.25,4.207031 v 5.125 l -7.08398,0.25 c -6.52778,0.194439 -11.4028,1.389538 -14.625,3.583984 -3.22227,2.194447 -4.83203,5.556212 -4.83203,10.083985 0,2.333334 0.33333,4.359806 1,6.082031 0.66666,1.69444 1.58333,3.111108 2.75,4.25 1.19446,1.111108 2.59589,1.931204 4.20703,2.458984 1.63887,0.555553 3.40408,0.833985 5.29297,0.833985 1.77778,0 3.29102,-0.208332 4.54101,-0.625 1.27778,-0.388886 2.41603,-0.945749 3.41602,-1.667969 1.00001,-0.722227 1.91666,-1.582031 2.75,-2.582031 0.83333,-1 1.69509,-2.09853 2.58398,-3.292969 h 0.70899 l 1.33203,7.333984 h 11.54297 v -3.583984 h -0.25 c -0.94443,0 -1.76454,-0.09657 -2.45899,-0.291016 -0.66666,-0.194446 -1.20832,-0.52778 -1.625,-1 -0.41658,-0.472219 -0.72149,-1.097218 -0.91601,-1.875 -0.19452,-0.777778 -0.29297,-1.764542 -0.29297,-2.958984 v -22.125 c 0,-2.722227 -0.33332,-5.013895 -1,-6.875 -0.63889,-1.888894 -1.61047,-3.415364 -2.91602,-4.582031 -1.30555,-1.166665 -2.93056,-1.999999 -4.875,-2.5 -1.94444,-0.527773 -4.22286,-0.792969 -6.83398,-0.792969 z m 127.25,0 c -6.05556,0 -10.72029,2.015194 -13.99805,6.042969 -3.27778,4.027779 -4.91797,10.027782 -4.91797,18 0,3.694448 0.44509,6.999349 1.33399,9.916015 0.91666,2.888887 2.22157,5.333985 3.91601,7.333985 1.69444,2 3.76454,3.526472 6.20899,4.582031 2.47221,1.027775 5.24869,1.542969 8.33203,1.542969 2.52777,0 4.72287,-0.278432 6.58398,-0.833985 1.88891,-0.555555 3.459,-1.250651 4.70899,-2.083984 1.24999,-0.833333 2.17989,-1.734806 2.79101,-2.707031 0.6111,-1 0.91602,-1.931861 0.91602,-2.792969 0,-0.722227 -0.17992,-1.347227 -0.54102,-1.875 -0.33333,-0.527768 -0.69314,-0.874338 -1.08203,-1.041016 -0.50001,0.777779 -1.15342,1.527781 -1.95898,2.25 -0.77778,0.694448 -1.68121,1.319448 -2.70899,1.875 -1.02778,0.555553 -2.17927,1.000651 -3.45703,1.333985 -1.25002,0.333332 -2.61176,0.5 -4.08398,0.5 -2.02777,0 -3.81945,-0.333334 -5.375,-1 -1.55556,-0.69444 -2.87565,-1.764537 -3.95899,-3.208985 -1.05557,-1.444444 -1.87565,-3.277778 -2.45898,-5.5 -0.55567,-2.25 -0.86059,-4.929902 -0.91602,-8.041015 h 28.41797 v -3.917969 c 0,-3.361111 -0.41666,-6.30425 -1.25,-8.832031 -0.80557,-2.555553 -1.97224,-4.680552 -3.5,-6.375 -1.52779,-1.72222 -3.38954,-3.013888 -5.58398,-3.875 -2.19445,-0.861108 -4.66796,-1.292969 -7.41797,-1.292969 z m -325.79102,0.833984 v 3.583985 h 0.25 c 0.94447,0 1.83464,0.06815 2.66797,0.207031 0.86107,0.138888 1.61107,0.417319 2.25,0.833984 0.63887,0.416668 1.13887,1.013237 1.5,1.791016 0.38887,0.749999 0.58203,1.749999 0.58203,3 v 27.042969 c 0,1.249998 -0.19316,2.263234 -0.58203,3.041015 -0.36113,0.75 -0.86113,1.320099 -1.5,1.708985 -0.63893,0.388896 -1.38893,0.65213 -2.25,0.791015 -0.83333,0.111119 -1.7235,0.166016 -2.66797,0.166016 h -1.125 v 3.583984 h 24.25 v -3.583984 h -1.125 c -0.94446,0 -1.84596,-0.06815 -2.70703,-0.207031 -0.86113,-0.138888 -1.61113,-0.417319 -2.25,-0.833985 -0.61113,-0.444447 -1.11113,-1.069446 -1.5,-1.875 -0.36113,-0.805553 -0.54297,-1.87565 -0.54297,-3.208984 V 53.101562 Z m 101,3.333985 c 2.7778,0 4.7513,0.916667 5.91797,2.75 1.16667,1.833333 1.75,4.666667 1.75,8.5 0,1.861115 -0.14017,3.47092 -0.41797,4.832031 -0.25,1.333334 -0.67988,2.431861 -1.29101,3.292969 -0.61107,0.861112 -1.40274,1.499348 -2.375,1.916015 -0.94441,0.416666 -2.11107,0.625 -3.5,0.625 -2.75,0 -4.73679,-0.84657 -5.95899,-2.541015 -1.19447,-1.69444 -1.79101,-4.361106 -1.79101,-8 0,-3.833333 0.58333,-6.681861 1.75,-8.542969 1.19446,-1.888892 3.16601,-2.832031 5.91601,-2.832031 z m 224.625,0.416015 c 1.72221,0 3.16732,0.361765 4.33399,1.083985 1.19445,0.722225 2.15278,1.748697 2.875,3.082031 0.72221,1.333334 1.25063,2.931861 1.58398,4.792969 0.33333,1.861112 0.5,3.916015 0.5,6.166015 h -19.625 c 0.30556,-4.944448 1.30556,-8.694447 3,-11.25 1.72223,-2.583332 4.16537,-3.874999 7.33203,-3.875 z m -73.45898,0.875 c 1.8889,10e-7 3.50066,0.375001 4.83398,1.125 1.36111,0.750002 2.45768,1.875002 3.29102,3.375 0.86112,1.500002 1.48806,3.388236 1.87695,5.666016 0.38889,2.249998 0.58203,4.890194 0.58203,7.917969 0,3 -0.19314,5.651471 -0.58203,7.957031 -0.38889,2.277773 -1.01583,4.19444 -1.87695,5.75 -0.83334,1.555553 -1.91473,2.737415 -3.24805,3.542969 -1.30557,0.777781 -2.90409,1.166015 -4.79297,1.166015 -2.25,0 -4.12501,-0.388234 -5.625,-1.166015 -1.47223,-0.805554 -2.66732,-1.987416 -3.58398,-3.542969 -0.8889,-1.55556 -1.52713,-3.472227 -1.91602,-5.75 -0.36109,-2.27778 -0.54101,-4.902779 -0.54101,-7.875 0,-3.083333 0.17992,-5.763235 0.54101,-8.041016 0.38889,-2.27778 1.02712,-4.166016 1.91602,-5.666015 0.88889,-1.500001 2.07074,-2.611765 3.54297,-3.333985 1.49999,-0.749999 3.35982,-1.125 5.58203,-1.125 z m -46.04102,17.916016 v 6.917969 c 0,1.805561 -0.26322,3.443796 -0.79101,4.916015 -0.52778,1.472222 -1.29103,2.722221 -2.29102,3.75 -0.97222,1.02778 -2.16732,1.819448 -3.58398,2.375 -1.38891,0.555553 -2.94574,0.833985 -4.66797,0.833985 -2.3611,0 -4.10918,-0.653432 -5.24805,-1.958985 -1.11114,-1.333334 -1.66797,-3.333334 -1.66797,-6 0,-1.666665 0.20834,-3.138235 0.625,-4.416015 0.44447,-1.277775 1.16798,-2.347872 2.16797,-3.208985 0.99999,-0.888886 2.3049,-1.568788 3.91602,-2.041015 1.6389,-0.499989 3.66537,-0.806851 6.08203,-0.917969 z M 73.728516,75.917969 c 6.674339,0 12.083984,2.325045 12.083984,5.195312 0,2.868408 -5.409645,5.197266 -12.083984,5.197266 L 71.625,86.306641 c -8.02021,0.02872 -8.792969,-3.512477 -8.792969,-5.677735 0,-1.345935 0.248244,-2.778685 0.695313,-4.277344 3.008598,-0.279685 6.128176,-0.43164 9.330078,-0.43164 z M 287.23828,98.267578 h 8.375 c 1.41667,0 2.66667,0.09852 3.75,0.292969 1.08333,0.194446 1.98678,0.527781 2.70899,1 0.74999,0.500003 1.30488,1.166663 1.66601,2.000003 0.38887,0.86111 0.58399,1.94444 0.58399,3.25 0,1.5 -0.23679,2.875 -0.70899,4.125 -0.4722,1.27778 -1.29037,2.37435 -2.45703,3.29101 -1.16667,0.91667 -2.75,1.625 -4.75,2.125 -1.97227,0.52778 -4.48744,0.79102 -7.54297,0.79102 -2.16667,0 -3.95833,-0.22157 -5.375,-0.66602 -1.41666,-0.44444 -2.54166,-1.05621 -3.375,-1.83398 -0.83333,-0.77778 -1.41667,-1.70768 -1.75,-2.79102 -0.33333,-1.08333 -0.5,-2.25 -0.5,-3.5 0,-1.69445 0.26517,-3.06944 0.79297,-4.125 0.52773,-1.05555 1.2209,-1.87565 2.08203,-2.458982 0.88887,-0.583335 1.88887,-0.971571 3,-1.166016 1.13887,-0.222211 2.30553,-0.333984 3.5,-0.333984 z"
       transform="scale(0.26458333)"
       id="path306"
       inkscape:connector-curvature="0" />
  </g>
</svg>
